mtllib material.mtl
usemtl material_0
v 250.39997900 111.39999400 -40.20000500
v 250.39997900 111.39999400 -40.20000500
v 250.39997900 111.39999400 -40.20000500
v 250.39997900 111.39999400 -3.20000500
v 250.39997900 111.39999400 -3.20000500
v 250.39997900 111.39999400 -3.20000500
v 250.39997900 171.39999400 -40.20000800
v 250.39997900 171.39999400 -40.20000800
v 250.39997900 171.39999400 -40.20000800
v 250.39997900 171.39999400 -3.20000800
v 250.39997900 171.39999400 -3.20000800
v 250.39997900 171.39999400 -3.20000800
v 375.40002400 171.39999400 -40.20001600
v 375.40002400 171.39999400 -40.20001600
v 375.40002400 171.39999400 -40.20001600
v 375.40002400 171.39999400 -3.20001600
v 375.40002400 171.39999400 -3.20001600
v 375.40002400 171.39999400 -3.20001600
v 375.40002400 111.39999400 -40.20001200
v 375.40002400 111.39999400 -40.20001200
v 375.40002400 111.39999400 -40.20001200
v 375.40002400 111.39999400 -3.20001200
v 375.40002400 111.39999400 -3.20001200
v 375.40002400 111.39999400 -3.20001200
vn -1.00000000 -0.00000000 -0.00000000
vn -0.00000000 -1.00000000 -0.00000000
vn -0.00000000 -0.00000000 -1.00000000
vn -1.00000000 -0.00000000 -0.00000000
vn -0.00000000 -0.00000000 1.00000000
vn -0.00000000 -1.00000000 -0.00000000
vn -0.00000000 -0.00000000 -1.00000000
vn -0.00000000 1.00000000 -0.00000000
vn -1.00000000 -0.00000000 -0.00000000
vn -1.00000000 -0.00000000 -0.00000000
vn -0.00000000 1.00000000 -0.00000000
vn -0.00000000 -0.00000000 1.00000000
vn -0.00000000 1.00000000 -0.00000000
vn -0.00000000 -0.00000000 -1.00000000
vn 1.00000000 -0.00000000 -0.00000000
vn -0.00000000 1.00000000 -0.00000000
vn -0.00000000 -0.00000000 1.00000000
vn 1.00000000 -0.00000000 -0.00000000
vn 1.00000000 -0.00000000 -0.00000000
vn -0.00000000 -0.00000000 -1.00000000
vn -0.00000000 -1.00000000 -0.00000000
vn -0.00000000 -1.00000000 -0.00000000
vn 1.00000000 -0.00000000 -0.00000000
vn -0.00000000 -0.00000000 1.00000000
vt 0.00000000 0.00000000
vt 0.00000000 1.00000000
vt 1.00000000 0.00000000
vt 1.00000000 0.00000000
vt 0.00000000 0.00000000
vt 1.00000000 1.00000000
vt 1.00000000 1.00000000
vt 0.00000000 0.00000000
vt 0.00000000 1.00000000
vt 1.00000000 1.00000000
vt 1.00000000 0.00000000
vt 0.00000000 1.00000000
vt 0.00000000 1.00000000
vt 0.00000000 1.00000000
vt 0.00000000 0.00000000
vt 1.00000000 1.00000000
vt 1.00000000 1.00000000
vt 1.00000000 0.00000000
vt 0.00000000 1.00000000
vt 0.00000000 0.00000000
vt 0.00000000 0.00000000
vt 1.00000000 0.00000000
vt 1.00000000 1.00000000
vt 1.00000000 0.00000000
f 1/1/1 10/10/10 9/9/9
f 1/1/1 4/4/4 10/10/10
f 8/8/8 16/16/16 13/13/13
f 8/8/8 11/11/11 16/16/16
f 15/15/15 23/23/23 19/19/19
f 15/15/15 18/18/18 23/23/23
f 21/21/21 6/6/6 2/2/2
f 21/21/21 22/22/22 6/6/6
f 5/5/5 17/17/17 12/12/12
f 5/5/5 24/24/24 17/17/17
f 20/20/20 7/7/7 14/14/14
f 20/20/20 3/3/3 7/7/7

