mtllib material.mtl
usemtl material_0
v 329.02172900 128.63931300 -491.50528000
v 329.02172900 128.63931300 -491.50528000
v 329.02172900 128.63931300 -491.50528000
v 329.02172900 128.63931300 -489.61767600
v 329.02172900 128.63931300 -489.61767600
v 329.02172900 128.63931300 -489.61767600
v 329.02172900 103.74996200 -489.61767600
v 329.02172900 103.74996200 -489.61767600
v 329.02172900 103.74996200 -491.50528000
v 329.02172900 103.74996200 -491.50528000
v 330.88308700 103.74996200 -491.50528000
v 330.88308700 103.74996200 -491.50528000
v 330.88308700 103.74996200 -491.50528000
v 330.88308700 128.63931300 -491.50528000
v 330.88308700 128.63931300 -491.50528000
v 330.88308700 128.63931300 -491.50528000
v 330.88308700 128.63931300 -491.22717300
v 330.88308700 128.63931300 -491.22717300
v 330.88308700 128.63931300 -491.22717300
v 330.88308700 104.24653600 -491.22714200
v 330.88308700 104.24653600 -491.22714200
v 330.88308700 104.24653600 -491.22714200
v 330.88308700 104.24653600 -491.22714200
v 329.29922500 104.24653600 -491.22772200
v 329.29922500 104.24653600 -491.22772200
v 329.29922500 104.24653600 -491.22772200
v 329.29922500 128.63931300 -491.22772200
v 329.29922500 128.63931300 -491.22772200
v 329.29922500 128.63931300 -491.22772200
v 329.29989600 104.24653600 -489.61767600
v 329.29989600 104.24653600 -489.61767600
v 329.29989600 104.24653600 -489.61767600
v 329.29989600 104.24653600 -489.61767600
v 329.29989600 128.63931300 -489.61767600
v 329.29989600 128.63931300 -489.61767600
v 329.29989600 128.63931300 -489.61767600
v 330.88308700 103.74996200 -489.61767600
v 330.88308700 103.74996200 -489.61767600
v 330.88308700 104.24653600 -489.61767600
v 330.88308700 104.24653600 -489.61767600
v 330.88308700 104.24653600 -489.61767600
v 329.22851600 129.05847200 -491.30270400
v 329.22851600 129.05847200 -491.30270400
v 329.22851600 129.05847200 -491.30270400
v 329.22851600 127.54536400 -491.30270400
v 329.22851600 127.54536400 -491.30270400
v 376.37146000 127.54536400 -491.30270400
v 376.37146000 127.54536400 -491.30270400
v 376.37146000 129.05847200 -491.30270400
v 376.37146000 129.05847200 -491.30270400
v 376.37146000 129.05847200 -491.30270400
v 329.22851600 129.05847200 -469.29727200
v 329.22851600 129.05847200 -469.29727200
v 329.22851600 129.05847200 -469.29727200
v 376.37146000 129.05847200 -469.29727200
v 376.37146000 129.05847200 -469.29727200
v 376.37146000 129.05847200 -469.29727200
v 329.22851600 127.54536400 -469.29727200
v 329.22851600 127.54536400 -469.29727200
v 376.37146000 127.54536400 -469.29727200
v 376.37146000 127.54536400 -469.29727200
v 329.02172900 128.63931300 -469.09469600
v 329.02172900 128.63931300 -469.09469600
v 329.02172900 128.63931300 -469.09469600
v 329.02172900 103.74996200 -469.09469600
v 329.02172900 103.74996200 -469.09469600
v 329.02172900 103.74996200 -470.98230000
v 329.02172900 103.74996200 -470.98230000
v 329.02172900 128.63931300 -470.98230000
v 329.02172900 128.63931300 -470.98230000
v 329.02172900 128.63931300 -470.98230000
v 330.88308700 128.63931300 -469.09469600
v 330.88308700 128.63931300 -469.09469600
v 330.88308700 128.63931300 -469.09469600
v 330.88308700 103.74996200 -469.09469600
v 330.88308700 103.74996200 -469.09469600
v 330.88308700 103.74996200 -469.09469600
v 330.88308700 128.63931300 -469.37280300
v 330.88308700 128.63931300 -469.37280300
v 330.88308700 128.63931300 -469.37280300
v 329.29922500 128.63931300 -469.37225300
v 329.29922500 128.63931300 -469.37225300
v 329.29922500 128.63931300 -469.37225300
v 329.29922500 104.24653600 -469.37225300
v 329.29922500 104.24653600 -469.37225300
v 329.29922500 104.24653600 -469.37225300
v 330.88308700 104.24653600 -469.37280300
v 330.88308700 104.24653600 -469.37280300
v 330.88308700 104.24653600 -469.37280300
v 330.88308700 104.24653600 -469.37280300
v 329.29989600 104.24653600 -470.98230000
v 329.29989600 104.24653600 -470.98230000
v 329.29989600 104.24653600 -470.98230000
v 329.29989600 104.24653600 -470.98230000
v 329.29989600 128.63931300 -470.98230000
v 329.29989600 128.63931300 -470.98230000
v 329.29989600 128.63931300 -470.98230000
v 330.88308700 103.74996200 -470.98230000
v 330.88308700 103.74996200 -470.98230000
v 330.88308700 104.24653600 -470.98230000
v 330.88308700 104.24653600 -470.98230000
v 330.88308700 104.24653600 -470.98230000
v 376.57824700 128.63931300 -491.50528000
v 376.57824700 128.63931300 -491.50528000
v 376.57824700 128.63931300 -491.50528000
v 376.57824700 103.74996200 -491.50528000
v 376.57824700 103.74996200 -491.50528000
v 376.57824700 103.74996200 -489.61767600
v 376.57824700 103.74996200 -489.61767600
v 376.57824700 128.63931300 -489.61770600
v 376.57824700 128.63931300 -489.61770600
v 376.57824700 128.63931300 -489.61770600
v 374.71688800 128.63931300 -491.50528000
v 374.71688800 128.63931300 -491.50528000
v 374.71688800 128.63931300 -491.50528000
v 374.71688800 103.74996200 -491.50528000
v 374.71688800 103.74996200 -491.50528000
v 374.71688800 103.74996200 -491.50528000
v 374.71688800 128.63931300 -491.22717300
v 374.71688800 128.63931300 -491.22717300
v 374.71688800 128.63931300 -491.22717300
v 376.30075100 128.63931300 -491.22775300
v 376.30075100 128.63931300 -491.22775300
v 376.30075100 128.63931300 -491.22775300
v 376.30075100 104.24653600 -491.22772200
v 376.30075100 104.24653600 -491.22772200
v 376.30075100 104.24653600 -491.22772200
v 374.71688800 104.24653600 -491.22717300
v 374.71688800 104.24653600 -491.22717300
v 374.71688800 104.24653600 -491.22717300
v 374.71688800 104.24653600 -491.22717300
v 376.30007900 104.24653600 -489.61767600
v 376.30007900 104.24653600 -489.61767600
v 376.30007900 104.24653600 -489.61767600
v 376.30007900 104.24653600 -489.61767600
v 376.30007900 128.63931300 -489.61770600
v 376.30007900 128.63931300 -489.61770600
v 376.30007900 128.63931300 -489.61770600
v 374.71688800 103.74996200 -489.61767600
v 374.71688800 103.74996200 -489.61767600
v 374.71688800 104.24653600 -489.61767600
v 374.71688800 104.24653600 -489.61767600
v 374.71688800 104.24653600 -489.61767600
v 376.57824700 128.63931300 -469.09469600
v 376.57824700 128.63931300 -469.09469600
v 376.57824700 128.63931300 -469.09469600
v 376.57824700 128.63931300 -470.98230000
v 376.57824700 128.63931300 -470.98230000
v 376.57824700 128.63931300 -470.98230000
v 376.57824700 103.74996200 -470.98230000
v 376.57824700 103.74996200 -470.98230000
v 376.57824700 103.74996200 -469.09469600
v 376.57824700 103.74996200 -469.09469600
v 374.71688800 103.74996200 -469.09469600
v 374.71688800 103.74996200 -469.09469600
v 374.71688800 103.74996200 -469.09469600
v 374.71688800 128.63931300 -469.09469600
v 374.71688800 128.63931300 -469.09469600
v 374.71688800 128.63931300 -469.09469600
v 374.71688800 128.63931300 -469.37283300
v 374.71688800 128.63931300 -469.37283300
v 374.71688800 128.63931300 -469.37283300
v 374.71688800 104.24653600 -469.37283300
v 374.71688800 104.24653600 -469.37283300
v 374.71688800 104.24653600 -469.37283300
v 374.71688800 104.24653600 -469.37283300
v 376.30075100 104.24653600 -469.37225300
v 376.30075100 104.24653600 -469.37225300
v 376.30075100 104.24653600 -469.37225300
v 376.30075100 128.63931300 -469.37225300
v 376.30075100 128.63931300 -469.37225300
v 376.30075100 128.63931300 -469.37225300
v 376.30007900 104.24653600 -470.98230000
v 376.30007900 104.24653600 -470.98230000
v 376.30007900 104.24653600 -470.98230000
v 376.30007900 104.24653600 -470.98230000
v 376.30007900 128.63931300 -470.98230000
v 376.30007900 128.63931300 -470.98230000
v 376.30007900 128.63931300 -470.98230000
v 374.71688800 103.74996200 -470.98230000
v 374.71688800 103.74996200 -470.98230000
v 374.71688800 104.24653600 -470.98230000
v 374.71688800 104.24653600 -470.98230000
v 374.71688800 104.24653600 -470.98230000
vn -1.00000000 -0.00000000 -0.00000000
vn -0.00000000 1.00000000 -0.00000000
vn -0.00000000 -0.00000000 -1.00000000
vn -1.00000000 -0.00000000 -0.00000000
vn -0.00000000 1.00000000 -0.00000000
vn -0.00000000 -0.00000000 1.00000000
vn -1.00000000 -0.00000000 -0.00000000
vn -0.00000000 -0.00000000 1.00000000
vn -0.00000000 -0.00000000 -1.00000000
vn -1.00000000 -0.00000000 -0.00000000
vn 1.00000000 -0.00000000 -0.00000000
vn 1.00000000 -0.00000000 -0.00000000
vn -0.00000000 -0.00000000 -1.00000000
vn 1.00000000 -0.00000000 -0.00000000
vn -0.00000000 1.00000000 -0.00000000
vn -0.00000000 -0.00000000 -1.00000000
vn 1.00000000 -0.00000000 -0.00000000
vn -0.00040000 -0.00000000 1.00000000
vn -0.00000000 1.00000000 -0.00000000
vn 1.00000000 -0.00000000 -0.00000000
vn -0.00000000 1.00000000 -0.00000000
vn -0.00040000 -0.00000000 1.00000000
vn 1.00000000 -0.00000000 -0.00000000
vn -0.00040000 -0.00000000 1.00000000
vn 1.00000000 -0.00000000 -0.00040000
vn -0.00000000 1.00000000 -0.00000000
vn 1.00000000 -0.00000000 -0.00040000
vn -0.00000000 1.00000000 -0.00000000
vn -0.00040000 -0.00000000 1.00000000
vn -0.00000000 -0.00000000 1.00000000
vn 1.00000000 -0.00000000 -0.00040000
vn -0.00000000 -0.00000000 1.00000000
vn -0.00000000 1.00000000 -0.00000000
vn -0.00000000 1.00000000 -0.00000000
vn 1.00000000 -0.00000000 -0.00040000
vn -0.00000000 -0.00000000 1.00000000
vn -0.00000000 -0.00000000 1.00000000
vn 1.00000000 -0.00000000 -0.00000000
vn -0.00000000 -0.00000000 1.00000000
vn -0.00000000 1.00000000 -0.00000000
vn 1.00000000 -0.00000000 -0.00000000
vn -1.00000000 -0.00000000 -0.00000000
vn -0.00000000 1.00000000 -0.00000000
vn -0.00000000 -0.00000000 -1.00000000
vn -1.00000000 -0.00000000 -0.00000000
vn -0.00000000 -0.00000000 -1.00000000
vn -0.00000000 -0.00000000 -1.00000000
vn 1.00000000 -0.00000000 -0.00000000
vn 1.00000000 -0.00000000 -0.00000000
vn -0.00000000 1.00000000 -0.00000000
vn -0.00000000 -0.00000000 -1.00000000
vn -1.00000000 -0.00000000 -0.00000000
vn -0.00000000 -0.00000000 1.00000000
vn -0.00000000 1.00000000 -0.00000000
vn -0.00000000 1.00000000 -0.00000000
vn 1.00000000 -0.00000000 -0.00000000
vn -0.00000000 -0.00000000 1.00000000
vn -0.00000000 -0.00000000 1.00000000
vn -1.00000000 -0.00000000 -0.00000000
vn -0.00000000 -0.00000000 1.00000000
vn 1.00000000 -0.00000000 -0.00000000
vn -0.00000000 1.00000000 -0.00000000
vn -0.00000000 -0.00000000 1.00000000
vn -1.00000000 -0.00000000 -0.00000000
vn -1.00000000 -0.00000000 -0.00000000
vn -0.00000000 -0.00000000 1.00000000
vn -1.00000000 -0.00000000 -0.00000000
vn -0.00000000 -0.00000000 -1.00000000
vn -0.00000000 1.00000000 -0.00000000
vn -1.00000000 -0.00000000 -0.00000000
vn -0.00000000 -0.00000000 -1.00000000
vn -0.00000000 -0.00000000 1.00000000
vn -0.00000000 1.00000000 -0.00000000
vn 1.00000000 -0.00000000 -0.00000000
vn -0.00000000 -0.00000000 1.00000000
vn 1.00000000 -0.00000000 -0.00000000
vn 1.00000000 -0.00000000 -0.00000000
vn 1.00000000 -0.00000000 -0.00000000
vn -0.00040000 -0.00000000 -1.00000000
vn -0.00000000 1.00000000 -0.00000000
vn -0.00040000 -0.00000000 -1.00000000
vn -0.00000000 1.00000000 -0.00000000
vn 1.00000000 -0.00000000 0.00040000
vn 1.00000000 -0.00000000 0.00040000
vn -0.00040000 -0.00000000 -1.00000000
vn -0.00000000 1.00000000 -0.00000000
vn -0.00000000 1.00000000 -0.00000000
vn -0.00040000 -0.00000000 -1.00000000
vn 1.00000000 -0.00000000 -0.00000000
vn 1.00000000 -0.00000000 -0.00000000
vn -0.00000000 -0.00000000 -1.00000000
vn -0.00000000 1.00000000 -0.00000000
vn 1.00000000 -0.00000000 0.00040000
vn -0.00000000 -0.00000000 -1.00000000
vn 1.00000000 -0.00000000 0.00040000
vn -0.00000000 1.00000000 -0.00000000
vn -0.00000000 -0.00000000 -1.00000000
vn -0.00000000 -0.00000000 -1.00000000
vn 1.00000000 -0.00000000 -0.00000000
vn -0.00000000 1.00000000 -0.00000000
vn 1.00000000 -0.00000000 -0.00000000
vn -0.00000000 -0.00000000 -1.00000000
vn 1.00000000 -0.00000000 -0.00000000
vn -0.00000000 -0.00000000 -1.00000000
vn -0.00000000 1.00000000 -0.00000000
vn -0.00000000 -0.00000000 -1.00000000
vn 1.00000000 -0.00000000 -0.00000000
vn -0.00000000 -0.00000000 1.00000000
vn 1.00000000 -0.00000000 -0.00000000
vn 1.00000000 -0.00000000 -0.00000000
vn -0.00000000 -0.00000000 1.00000000
vn -0.00000000 1.00000000 -0.00000000
vn -0.00000000 1.00000000 -0.00000000
vn -0.00000000 -0.00000000 -1.00000000
vn -1.00000000 -0.00000000 -0.00000000
vn -0.00000000 -0.00000000 -1.00000000
vn -1.00000000 -0.00000000 -0.00000000
vn -1.00000000 -0.00000000 -0.00000000
vn -1.00000000 -0.00000000 -0.00000000
vn -0.00000000 1.00000000 -0.00000000
vn 0.00040000 -0.00000000 1.00000000
vn -1.00000000 -0.00000000 -0.00040000
vn -0.00000000 1.00000000 -0.00000000
vn 0.00040000 -0.00000000 1.00000000
vn -1.00000000 -0.00000000 -0.00040000
vn 0.00040000 -0.00000000 1.00000000
vn -0.00000000 1.00000000 -0.00000000
vn -1.00000000 -0.00000000 -0.00000000
vn 0.00040000 -0.00000000 1.00000000
vn -0.00000000 1.00000000 -0.00000000
vn -1.00000000 -0.00000000 -0.00000000
vn -0.00000000 -0.00000000 1.00000000
vn -1.00000000 -0.00000000 -0.00040000
vn -0.00000000 -0.00000000 1.00000000
vn -0.00000000 1.00000000 -0.00000000
vn -0.00000000 -0.00000000 1.00000000
vn -0.00000000 1.00000000 -0.00000000
vn -1.00000000 -0.00000000 -0.00040000
vn -1.00000000 -0.00000000 -0.00000000
vn -0.00000000 -0.00000000 1.00000000
vn -1.00000000 -0.00000000 -0.00000000
vn -0.00000000 -0.00000000 1.00000000
vn -0.00000000 1.00000000 -0.00000000
vn -0.00000000 1.00000000 -0.00000000
vn 1.00000000 -0.00000000 -0.00000000
vn -0.00000000 -0.00000000 1.00000000
vn -0.00000000 -0.00000000 -1.00000000
vn 1.00000000 -0.00000000 -0.00000000
vn -0.00000000 1.00000000 -0.00000000
vn 1.00000000 -0.00000000 -0.00000000
vn -0.00000000 -0.00000000 -1.00000000
vn -0.00000000 -0.00000000 1.00000000
vn 1.00000000 -0.00000000 -0.00000000
vn -0.00000000 -0.00000000 1.00000000
vn -1.00000000 -0.00000000 -0.00000000
vn -1.00000000 -0.00000000 -0.00000000
vn -0.00000000 1.00000000 -0.00000000
vn -0.00000000 -0.00000000 1.00000000
vn -1.00000000 -0.00000000 -0.00000000
vn -0.00000000 1.00000000 -0.00000000
vn 0.00040000 -0.00000000 -1.00000000
vn -1.00000000 -0.00000000 -0.00000000
vn -0.00000000 1.00000000 -0.00000000
vn 0.00040000 -0.00000000 -1.00000000
vn -1.00000000 -0.00000000 -0.00000000
vn -1.00000000 -0.00000000 -0.00000000
vn -1.00000000 -0.00000000 0.00040000
vn 0.00040000 -0.00000000 -1.00000000
vn -0.00000000 1.00000000 -0.00000000
vn -1.00000000 -0.00000000 0.00040000
vn -0.00000000 1.00000000 -0.00000000
vn 0.00040000 -0.00000000 -1.00000000
vn -1.00000000 -0.00000000 0.00040000
vn -0.00000000 1.00000000 -0.00000000
vn -0.00000000 -0.00000000 -1.00000000
vn -0.00000000 -0.00000000 -1.00000000
vn -0.00000000 -0.00000000 -1.00000000
vn -0.00000000 1.00000000 -0.00000000
vn -1.00000000 -0.00000000 0.00040000
vn -0.00000000 -0.00000000 -1.00000000
vn -1.00000000 -0.00000000 -0.00000000
vn -0.00000000 -0.00000000 -1.00000000
vn -0.00000000 1.00000000 -0.00000000
vn -1.00000000 -0.00000000 -0.00000000
vt 0.58767900 0.58874200
vt 0.58767900 0.58874200
vt 0.58767900 0.58874200
vt 0.58767900 0.55111800
vt 0.62530300 0.58874200
vt 0.58767900 0.55111800
vt 0.09157000 0.55111900
vt 0.09157000 0.55111900
vt 0.09157000 0.58874300
vt 0.09157000 0.58874300
vt 0.09157100 0.62584600
vt 0.05446800 0.58874300
vt 0.09157100 0.62584600
vt 0.58767900 0.62584400
vt 0.58767900 0.62584400
vt 0.58767900 0.62584400
vt 0.58767900 0.63138800
vt 0.58767900 0.63138800
vt 0.59322200 0.62584400
vt 0.04457000 0.58320000
vt 0.04457000 0.58320000
vt 0.10146700 0.63138900
vt 0.10146700 0.63138900
vt 0.10146700 0.66295900
vt 0.10146900 0.51348200
vt 0.01299900 0.58321200
vt 0.58767900 0.51348100
vt 0.59321000 0.59427300
vt 0.58767900 0.66295900
vt 0.08602500 0.54122100
vt 0.10146900 0.54557400
vt 0.10146900 0.54557400
vt 0.01301300 0.55111900
vt 0.62530300 0.59428700
vt 0.58767900 0.54557300
vt 0.58767900 0.54557300
vt 0.05446800 0.55111900
vt 0.05446800 0.55111900
vt 0.05446800 0.54122100
vt 0.04457000 0.55111900
vt 0.04457000 0.55111900
vt 0.96984000 0.03016000
vt 0.96984000 0.03016000
vt 0.96984000 0.03016000
vt 1.00000000 0.03016000
vt 0.96984000 0.00000000
vt 0.03016000 0.00000000
vt 0.00000000 0.03016000
vt 0.03016000 0.03016000
vt 0.03016000 0.03016000
vt 0.03016000 0.03016000
vt 0.96984000 0.46878500
vt 0.96984000 0.46878500
vt 0.96984000 0.46878500
vt 0.03016000 0.46878500
vt 0.03016000 0.46878500
vt 0.03016000 0.46878500
vt 0.96984000 0.49894500
vt 1.00000000 0.46878400
vt 0.03016000 0.49894500
vt 0.00000000 0.46878500
vt 0.58767900 0.58874200
vt 0.58767900 0.58874200
vt 0.58767900 0.58874200
vt 0.09157000 0.58874300
vt 0.09157000 0.58874300
vt 0.09157000 0.55111900
vt 0.09157000 0.55111900
vt 0.62530300 0.58874200
vt 0.58767900 0.55111800
vt 0.58767900 0.55111800
vt 0.58767900 0.62584400
vt 0.58767900 0.62584400
vt 0.58767900 0.62584400
vt 0.09157100 0.62584600
vt 0.05446800 0.58874300
vt 0.09157100 0.62584600
vt 0.58767900 0.63138800
vt 0.58767900 0.63138800
vt 0.59322200 0.62584400
vt 0.58767900 0.66295900
vt 0.59321000 0.59427300
vt 0.58767900 0.51348100
vt 0.10146900 0.51348200
vt 0.10146700 0.66295900
vt 0.01299900 0.58321200
vt 0.04457000 0.58320000
vt 0.10146700 0.63138900
vt 0.10146700 0.63138900
vt 0.04457000 0.58320000
vt 0.10146900 0.54557400
vt 0.01301300 0.55111900
vt 0.10146900 0.54557400
vt 0.08602500 0.54122100
vt 0.58767900 0.54557300
vt 0.62530300 0.59428700
vt 0.58767900 0.54557300
vt 0.05446800 0.55111900
vt 0.05446800 0.55111900
vt 0.04457000 0.55111900
vt 0.04457000 0.55111900
vt 0.05446800 0.54122100
vt 0.58767900 0.58874200
vt 0.58767900 0.58874200
vt 0.58767900 0.58874200
vt 0.09157000 0.58874300
vt 0.09157000 0.58874300
vt 0.09157000 0.55111900
vt 0.09157000 0.55111900
vt 0.58767900 0.55111800
vt 0.58767900 0.55111800
vt 0.62530300 0.58874200
vt 0.58767900 0.62584400
vt 0.58767900 0.62584400
vt 0.58767900 0.62584400
vt 0.09157100 0.62584600
vt 0.09157100 0.62584600
vt 0.05446800 0.58874300
vt 0.58767900 0.63138800
vt 0.59322200 0.62584400
vt 0.58767900 0.63138800
vt 0.58767900 0.51348100
vt 0.59321000 0.59427300
vt 0.58767900 0.66295900
vt 0.10146900 0.51348200
vt 0.10146700 0.66295900
vt 0.01299900 0.58321200
vt 0.10146700 0.63138900
vt 0.10146700 0.63138900
vt 0.04457000 0.58320000
vt 0.04457000 0.58320000
vt 0.10146900 0.54557400
vt 0.10146900 0.54557400
vt 0.08602500 0.54122100
vt 0.01301300 0.55111900
vt 0.58767900 0.54557300
vt 0.62530300 0.59428700
vt 0.58767900 0.54557300
vt 0.05446800 0.55111900
vt 0.05446800 0.55111900
vt 0.04457000 0.55111900
vt 0.05446800 0.54122100
vt 0.04457000 0.55111900
vt 0.58767900 0.58874200
vt 0.58767900 0.58874200
vt 0.58767900 0.58874200
vt 0.58767900 0.55111800
vt 0.58767900 0.55111800
vt 0.62530300 0.58874200
vt 0.09157000 0.55111900
vt 0.09157000 0.55111900
vt 0.09157000 0.58874300
vt 0.09157000 0.58874300
vt 0.09157100 0.62584600
vt 0.09157100 0.62584600
vt 0.05446800 0.58874300
vt 0.58767900 0.62584400
vt 0.58767900 0.62584400
vt 0.58767900 0.62584400
vt 0.59322200 0.62584400
vt 0.58767900 0.63138800
vt 0.58767900 0.63138800
vt 0.04457000 0.58320000
vt 0.10146700 0.63138900
vt 0.04457000 0.58320000
vt 0.10146700 0.63138900
vt 0.10146900 0.51348200
vt 0.10146700 0.66295900
vt 0.01299900 0.58321200
vt 0.58767900 0.51348100
vt 0.59321000 0.59427300
vt 0.58767900 0.66295900
vt 0.10146900 0.54557400
vt 0.01301300 0.55111900
vt 0.10146900 0.54557400
vt 0.08602500 0.54122100
vt 0.58767900 0.54557300
vt 0.62530300 0.59428700
vt 0.58767900 0.54557300
vt 0.05446800 0.55111900
vt 0.05446800 0.55111900
vt 0.05446800 0.54122100
vt 0.04457000 0.55111900
vt 0.04457000 0.55111900
f 1/1/1 7/7/7 4/4/4
f 1/1/1 10/10/10 7/7/7
f 9/9/9 16/16/16 13/13/13
f 9/9/9 3/3/3 16/16/16
f 18/18/18 24/24/24 22/22/22
f 18/18/18 29/29/29 24/24/24
f 32/32/32 6/6/6 8/8/8
f 32/32/32 36/36/36 6/6/6
f 5/5/5 34/34/34 28/28/28
f 5/5/5 28/28/28 2/2/2
f 15/15/15 2/2/2 28/28/28
f 15/15/15 28/28/28 19/19/19
f 38/38/38 20/20/20 41/41/41
f 38/38/38 12/12/12 20/20/20
f 25/25/25 35/35/35 31/31/31
f 25/25/25 27/27/27 35/35/35
f 33/33/33 21/21/21 26/26/26
f 33/33/33 40/40/40 21/21/21
f 23/23/23 14/14/14 17/17/17
f 23/23/23 11/11/11 14/14/14
f 30/30/30 37/37/37 39/39/39
f 30/30/30 8/8/8 37/37/37
f 44/44/44 47/47/47 46/46/46
f 44/44/44 51/51/51 47/47/47
f 54/54/54 50/50/50 43/43/43
f 54/54/54 55/55/55 50/50/50
f 58/58/58 57/57/57 53/53/53
f 58/58/58 60/60/60 57/57/57
f 52/52/52 45/45/45 59/59/59
f 52/52/52 42/42/42 45/45/45
f 49/49/49 61/61/61 48/48/48
f 49/49/49 56/56/56 61/61/61
f 64/64/64 67/67/67 65/65/65
f 64/64/64 70/70/70 67/67/67
f 66/66/66 72/72/72 63/63/63
f 66/66/66 75/75/75 72/72/72
f 79/79/79 85/85/85 81/81/81
f 79/79/79 88/88/88 85/85/85
f 91/91/91 71/71/71 97/97/97
f 91/91/91 68/68/68 71/71/71
f 69/69/69 82/82/82 96/96/96
f 69/69/69 62/62/62 82/82/82
f 73/73/73 82/82/82 62/62/62
f 73/73/73 80/80/80 82/82/82
f 99/99/99 90/90/90 76/76/76
f 99/99/99 101/101/101 90/90/90
f 84/84/84 95/95/95 83/83/83
f 84/84/84 93/93/93 95/95/95
f 92/92/92 87/87/87 100/100/100
f 92/92/92 86/86/86 87/87/87
f 89/89/89 74/74/74 77/77/77
f 89/89/89 78/78/78 74/74/74
f 94/94/94 98/98/98 68/68/68
f 94/94/94 102/102/102 98/98/98
f 103/103/103 109/109/109 107/107/107
f 103/103/103 110/110/110 109/109/109
f 106/106/106 114/114/114 104/104/104
f 106/106/106 116/116/116 114/114/114
f 121/121/121 126/126/126 124/124/124
f 121/121/121 129/129/129 126/126/126
f 132/132/132 111/111/111 136/136/136
f 132/132/132 108/108/108 111/111/111
f 112/112/112 123/123/123 137/137/137
f 112/112/112 105/105/105 123/123/123
f 113/113/113 123/123/123 105/105/105
f 113/113/113 120/120/120 123/123/123
f 139/139/139 131/131/131 118/118/118
f 139/139/139 141/141/141 131/131/131
f 125/125/125 138/138/138 122/122/122
f 125/125/125 133/133/133 138/138/138
f 135/135/135 130/130/130 143/143/143
f 135/135/135 127/127/127 130/130/130
f 128/128/128 115/115/115 117/117/117
f 128/128/128 119/119/119 115/115/115
f 134/134/134 140/140/140 108/108/108
f 134/134/134 142/142/142 140/140/140
f 145/145/145 150/150/150 148/148/148
f 145/145/145 153/153/153 150/150/150
f 152/152/152 158/158/158 154/154/154
f 152/152/152 146/146/146 158/158/158
f 161/161/161 168/168/168 164/164/164
f 161/161/161 172/172/172 168/168/168
f 175/175/175 147/147/147 151/151/151
f 175/175/175 177/177/177 147/147/147
f 149/149/149 178/178/178 171/171/171
f 149/149/149 171/171/171 144/144/144
f 157/157/157 144/144/144 171/171/171
f 157/157/157 171/171/171 160/160/160
f 181/181/181 165/165/165 184/184/184
f 181/181/181 156/156/156 165/165/165
f 167/167/167 179/179/179 173/173/173
f 167/167/167 170/170/170 179/179/179
f 174/174/174 163/163/163 169/169/169
f 174/174/174 183/183/183 163/163/163
f 166/166/166 159/159/159 162/162/162
f 166/166/166 155/155/155 159/159/159
f 176/176/176 180/180/180 182/182/182
f 176/176/176 151/151/151 180/180/180

